<?xml version="1.0" encoding="UTF-8"?>
<svg version="1.1" xmlns="http://www.w3.org/2000/svg" width="2000" height="2000">

<path d="M0 0 C0.9345401 -0.00524185 1.8690802 -0.0104837 2.8319397 -0.0158844 C4.80722054 -0.02230213 6.78253961 -0.02097082 8.7578125 -0.01245117 C11.77153094 -0.00395567 14.78334447 -0.03268249 17.796875 -0.06445312 C19.71874943 -0.06606569 21.64062721 -0.06548655 23.5625 -0.0625 C24.45955658 -0.07373398 25.35661316 -0.08496796 26.28085327 -0.09654236 C31.79617367 -0.03549549 35.12583101 0.62938611 39.4140625 4.43359375 C43.30522738 8.90943346 42.83097634 13.71013798 42.77734375 19.34375 C42.77861267 20.39738739 42.77988159 21.45102478 42.78118896 22.53659058 C42.77943964 26.18999038 42.75350494 29.84279741 42.7265625 33.49609375 C42.719514 35.47166252 42.71248264 37.44723146 42.70623684 39.42280293 C42.59304907 71.7405345 41.99176711 104.05769367 41.4765625 136.37109375 C41.46570256 137.05445628 41.45484262 137.7378188 41.44365358 138.44188929 C41.18790639 154.52975949 40.91396214 170.61705292 40.59037685 186.70372677 C40.47363229 192.67005439 40.38584067 198.63480777 40.35161304 204.60218334 C40.33151708 207.64705278 40.29074301 210.6913875 40.24474907 213.73596382 C40.22366987 215.65759551 40.23254641 217.57948622 40.24293518 219.50120544 C40.12602607 225.88511517 39.50851558 229.65954419 34.89344788 234.25059509 C31.11799156 237.26965952 26.88820651 236.63345049 22.27734375 236.671875 C21.36454147 236.67994675 20.4517392 236.68801849 19.51127625 236.69633484 C17.57532656 236.71018142 15.6393524 236.720901 13.70336914 236.72875977 C10.75554401 236.74592499 7.80885433 236.78979987 4.86132812 236.83398438 C2.9791749 236.8441156 1.09701215 236.85263036 -0.78515625 236.859375 C-2.09959969 236.88563713 -2.09959969 236.88563713 -3.44059753 236.91242981 C-9.32492408 236.89178554 -12.86114589 236.04199157 -17.5859375 232.43359375 C-20.46549299 227.82003409 -20.95174167 224.3333118 -20.91186523 218.94189453 C-20.91023188 218.19164379 -20.90859852 217.44139305 -20.90691566 216.66840744 C-20.89698566 214.11324725 -20.8645631 211.55887228 -20.83203125 209.00390625 C-20.81897674 207.12517991 -20.80700833 205.24644577 -20.79600525 203.3677063 C-20.75843075 197.94604156 -20.69746286 192.52484704 -20.63076019 187.10346985 C-20.58379997 183.258583 -20.54055306 179.41366144 -20.49786377 175.56872559 C-20.28768863 156.84639597 -20.02697718 138.12491606 -19.75171793 119.40344453 C-19.65901272 113.0800267 -19.57053682 106.75655509 -19.48310477 100.43306243 C-19.38627619 93.43795514 -19.28635664 86.4428949 -19.18517876 79.44784927 C-19.14315749 76.53891386 -19.10213383 73.62996735 -19.0620594 70.72100449 C-18.95033464 62.66813347 -18.81695177 54.61607309 -18.65974808 46.5639267 C-18.60550424 43.68055847 -18.56372611 40.79728308 -18.52921677 37.91361237 C-18.4835084 34.10025955 -18.41881364 30.28763278 -18.34188163 26.474787 C-18.31592858 25.02474785 -18.29663665 23.57457185 -18.28449833 22.12435126 C-18.26659171 20.11391843 -18.22207159 18.10377652 -18.17649841 16.09378052 C-18.15895728 14.9498842 -18.14141615 13.80598789 -18.12334347 12.62742805 C-17.3468804 8.01286377 -15.00369848 5.02055513 -11.93505859 1.58569336 C-8.0970924 -0.29659332 -4.21630898 -0.01373598 0 0 Z " fill="#010101" transform="translate(521.5859375,885.56640625)"/>
<path d="M0 0 C46.86 0 93.72 0 142 0 C142 24 142 24 137.5625 30.3125 C135.72786698 31.89789016 133.87393384 33.46126278 132 35 C130.51926455 36.71357194 129.081302 38.46500078 127.6875 40.25 C122.49791961 46.6730194 117.06759444 52.87647979 111.64648438 59.10351562 C109.06362591 62.07855189 106.49943086 65.0694406 103.9375 68.0625 C103.20116333 68.92258667 103.20116333 68.92258667 102.44995117 69.80004883 C101.46114797 70.95530518 100.47245951 72.11065976 99.48388672 73.26611328 C96.99104476 76.17894046 94.49537234 79.08934061 92 82 C90.9999866 83.16665518 89.99998659 84.33332184 89 85.5 C59 120.5 59 120.5 57.49926758 122.25073242 C56.50154805 123.41481977 55.50398886 124.57904456 54.5065918 125.7434082 C51.97301257 128.70069887 49.43649863 131.65538369 46.89453125 134.60546875 C41.39064951 140.99905944 35.95578793 147.43294643 30.64453125 153.98828125 C29 156 29 156 28 157 C83.935 157.495 83.935 157.495 141 158 C141 165.92 141 173.84 141 182 C91.5 182 42 182 -9 182 C-9 159 -9 159 -5.0625 152.6875 C-3.41323536 151.08469351 -1.7253936 149.52055235 0 148 C1.51926889 146.35087907 3.01957653 144.68407961 4.5 143 C5.61568359 141.77603516 5.61568359 141.77603516 6.75390625 140.52734375 C9.06187598 137.93037607 11.25555863 135.26595987 13.4375 132.5625 C17.29708603 127.79003797 21.37199991 123.26890891 25.52734375 118.75390625 C28.74709519 115.16792716 31.75905176 111.43298508 34.78515625 107.68359375 C36.95632827 105.05291443 39.20241357 102.52057576 41.5 100 C44.61458668 96.58260628 47.5918662 93.0947765 50.5 89.5 C54.11149134 85.03579543 57.88660694 80.76997886 61.75390625 76.52734375 C64.06187598 73.93037607 66.25555863 71.26595987 68.4375 68.5625 C72.29708603 63.79003797 76.37199991 59.26890891 80.52734375 54.75390625 C83.742731 51.17278775 86.75070099 47.44292598 89.7734375 43.69921875 C92.66394248 40.19511535 95.6948678 36.83423103 98.76171875 33.484375 C101.56468514 30.37322906 104.27475724 27.17944989 107 24 C71.69 23.67 36.38 23.34 0 23 C0 15.41 0 7.82 0 0 Z " fill="#020202" transform="translate(637,914)"/>
<path d="M0 0 C1.09376953 -0.01160156 2.18753906 -0.02320313 3.31445312 -0.03515625 C18.81924631 0.02018507 32.4558516 5.2310469 43.69140625 16.03515625 C58.62862827 31.59584493 61.9375 47.99775997 61.9375 69.375 C28.9375 69.375 -4.0625 69.375 -38.0625 69.375 C-35.0210883 90.34225171 -35.0210883 90.34225171 -22.4375 105.75 C-12.37313662 112.63614337 -0.93697036 112.75205934 10.9375 111.375 C18.3020006 109.48532591 25.1240266 106.28083778 29.66796875 99.97265625 C30.14878906 99.13605469 30.62960937 98.29945312 31.125 97.4375 C31.61355469 96.60347656 32.10210938 95.76945312 32.60546875 94.91015625 C34.1777006 92.02363089 34.1777006 92.02363089 35.9375 87.375 C44.5175 87.375 53.0975 87.375 61.9375 87.375 C58.51694732 102.76748707 52.74129455 115.51769487 39.66015625 125.03125 C22.72699879 135.78943107 1.75499077 138.36690563 -17.80786133 134.24829102 C-31.93860771 130.73582562 -43.89488073 122.14972015 -51.9375 109.9375 C-53.0108561 108.10149615 -54.05374273 106.24727462 -55.0625 104.375 C-55.77019531 103.08142578 -55.77019531 103.08142578 -56.4921875 101.76171875 C-64.80199399 85.166691 -66.18796196 62.23774093 -61.375 44.375 C-60.6621533 42.35360602 -59.89596766 40.34971914 -59.0625 38.375 C-58.68867187 37.47136719 -58.31484375 36.56773437 -57.9296875 35.63671875 C-55.14275689 29.55530395 -51.42288547 24.42242099 -47.0625 19.375 C-46.49015625 18.69566406 -45.9178125 18.01632812 -45.328125 17.31640625 C-33.24581098 4.07233126 -17.40743331 -0.18529497 0 0 Z " fill="#020202" transform="translate(1152.0625,963.625)"/>
<path d="M0 0 C8.91 0 17.82 0 27 0 C29.38753592 5.37195581 31.67094272 10.5794611 33.72973633 16.05419922 C33.97266922 16.69799026 34.21560211 17.34178131 34.46589661 18.00508118 C35.25717524 20.10399374 36.04465933 22.20430663 36.83203125 24.3046875 C37.39225652 25.79338529 37.95270099 27.28200061 38.51335144 28.77053833 C39.68572816 31.88483235 40.85638816 34.99976384 42.02563477 38.11523438 C43.50251592 42.05038981 44.98222304 45.98447412 46.46304512 49.91814804 C52.36320961 65.59201848 58.25135224 81.26976468 64 97 C68.35192271 87.77221302 72.13960173 78.34565455 75.91015625 68.87109375 C76.5658065 67.22916189 77.22168961 65.587323 77.87779236 63.9455719 C79.59317239 59.65143836 81.30544553 55.35607283 83.01702881 51.0604248 C84.75231823 46.70685322 86.4905309 42.35444925 88.22851562 38.00195312 C90.48720539 32.3446985 92.74519458 26.68716653 95.00081539 21.02868748 C95.5707518 19.59931443 96.14101422 18.17007131 96.71164036 16.74097347 C97.90577428 13.74982712 99.09541606 10.75725888 100.27365112 7.75979614 C100.63250397 6.84914398 100.99135681 5.93849182 101.36108398 5.00024414 C101.65957748 4.23708389 101.95807098 3.47392365 102.26560974 2.68763733 C103 1 103 1 104 0 C106.07262076 -0.08767112 108.14820294 -0.10695873 110.22265625 -0.09765625 C111.48271484 -0.09443359 112.74277344 -0.09121094 114.04101562 -0.08789062 C115.38151109 -0.07953403 116.72200588 -0.07106907 118.0625 -0.0625 C119.40689942 -0.0574866 120.7513006 -0.05292342 122.09570312 -0.04882812 C125.39717941 -0.03699488 128.69856803 -0.02050971 132 0 C128.54597232 9.34887457 124.67105788 18.44572671 120.58721924 27.53207397 C118.79957685 31.51032096 117.02370395 35.49382535 115.24609375 39.4765625 C114.8855188 40.28367172 114.52494385 41.09078094 114.15344238 41.92234802 C110.7729622 49.49436566 107.44128093 57.08719004 104.125 64.6875 C102.97667021 67.31775537 101.82817005 69.94793634 100.6796875 72.578125 C100.38734726 73.24776276 100.09500702 73.91740051 99.79380798 74.60733032 C97.45420913 79.9646978 95.10739409 85.31887882 92.7578125 90.671875 C92.3914418 91.50661346 92.02507111 92.34135193 91.64759827 93.2013855 C89.75798292 97.50565057 87.86675318 101.80919917 85.97338867 106.11181641 C82.42064261 114.1883852 78.87754334 122.26861332 75.37698364 130.3679657 C73.78467347 134.05051205 72.18606078 137.73030775 70.58703613 141.40994263 C69.83561842 143.1438408 69.08719798 144.87904179 68.34216309 146.61569214 C52.59432175 183.31360953 52.59432175 183.31360953 38.46484375 190.0546875 C33.44256586 191.9808226 28.62056796 192.1371622 23.29296875 192.09765625 C22.20487663 192.09553383 22.20487663 192.09553383 21.09480286 192.09336853 C18.7923255 192.08779931 16.48994765 192.07525261 14.1875 192.0625 C12.62044412 192.05748102 11.0533867 192.05291881 9.48632812 192.04882812 C5.65748349 192.03869354 1.82885231 192.01911241 -2 192 C-2 185.07 -2 178.14 -2 171 C-0.288125 170.97421875 1.42375 170.9484375 3.1875 170.921875 C5.45835808 170.86557273 7.72919043 170.80822589 10 170.75 C11.12535156 170.73582031 12.25070312 170.72164062 13.41015625 170.70703125 C22.90287032 170.46527097 22.90287032 170.46527097 31 166 C33.46628729 162.88507265 35.22653519 159.5463491 37 156 C37.56058105 154.89317871 38.12116211 153.78635742 38.69873047 152.64599609 C40.18947328 149.6311264 41.64106938 146.60539457 43.06176758 143.55737305 C43.94746244 141.66622809 44.85333416 139.78557433 45.75976562 137.90429688 C46.32937864 136.69069178 46.89778377 135.47651885 47.46484375 134.26171875 C47.976521 133.17850342 48.48819824 132.09528809 49.01538086 130.97924805 C50.58816433 126.22033987 48.95196462 122.56265157 47.10498047 118.0625 C46.71246094 117.09981705 46.31994141 116.13713409 45.91552734 115.14527893 C45.4870752 114.10733688 45.05862305 113.06939484 44.6171875 112 C44.17084961 110.90852158 43.72451172 109.81704315 43.26464844 108.69248962 C41.8054933 105.12664775 40.34024027 101.56334521 38.875 98 C37.86556785 95.53608367 36.85650995 93.07201863 35.84814453 90.60766602 C34.33028853 86.89877652 32.81216846 83.18999761 31.29196167 79.48207092 C26.8210175 68.57490876 22.39430837 57.65020762 17.97940063 46.72027588 C14.83156916 38.93091091 11.6591546 31.15338947 8.41796875 23.40234375 C8.13165588 22.71641647 7.84534302 22.0304892 7.550354 21.32377625 C6.20781039 18.10855084 4.86004683 14.89573774 3.50146484 11.68725586 C3.03820801 10.5813208 2.57495117 9.47538574 2.09765625 8.3359375 C1.69039307 7.37220215 1.28312988 6.4084668 0.86352539 5.41552734 C0 3 0 3 0 0 Z " fill="#020202" transform="translate(795,964)"/>
<path d="M0 0 C7.59 0 15.18 0 23 0 C25.21288162 10.10228567 26.57492802 19.66635368 27 30 C27.66 30 28.32 30 29 30 C29.10828125 29.2678125 29.2165625 28.535625 29.328125 27.78125 C31.70244751 17.95265916 40.85360389 10.29515747 49 5 C61.32057075 -1.40345454 76.77659987 -2.18016309 90.25 1.125 C101.24971028 4.89733654 109.8298138 11.46758794 115.25 21.75 C120.39065377 32.71672804 122.16990776 43.69746483 122.11352539 55.7109375 C122.11367142 56.54115921 122.11381744 57.37138092 122.1139679 58.22676086 C122.11327695 60.94286812 122.10552322 63.65890488 122.09765625 66.375 C122.09578916 68.26928673 122.09436663 70.16357394 122.09336853 72.05786133 C122.08956626 77.02261712 122.07975571 81.98734326 122.06866455 86.9520874 C122.05840101 92.02664794 122.05386035 97.10121331 122.04882812 102.17578125 C122.03813123 112.11720257 122.02055316 122.05859417 122 132 C113.42 132 104.84 132 96 132 C95.98541748 129.69999023 95.97083496 127.39998047 95.95581055 125.03027344 C95.90524326 117.39069544 95.83861055 109.75131656 95.76428509 102.11193466 C95.71975141 97.48479743 95.68045887 92.8577448 95.65356445 88.23046875 C95.62736051 83.7563757 95.58684033 79.28261127 95.53681374 74.80872345 C95.52025967 73.11053843 95.50867464 71.41229672 95.50238609 69.71404266 C95.43030684 49.67435992 95.43030684 49.67435992 86.46875 32.28515625 C79.76630442 26.05492842 72.46080768 24.44918554 63.5625 24.5625 C62.72356201 24.57079834 61.88462402 24.57909668 61.02026367 24.58764648 C54.94695081 24.75399807 50.04853886 25.39237604 45 29 C43.94619141 29.74636719 43.94619141 29.74636719 42.87109375 30.5078125 C34.59831382 37.05900102 30.8866304 45.79998656 29 56 C28.55020357 61.90052511 28.51071037 67.78399521 28.48828125 73.69921875 C28.47140409 75.38744893 28.45324985 77.07566678 28.43388367 78.76387024 C28.38670679 83.17121525 28.35668967 87.57851024 28.33044434 91.98602295 C28.30047428 96.49794387 28.25400115 101.00969293 28.20898438 105.52148438 C28.12331953 114.34758531 28.05734058 123.17366956 28 132 C18.76 132 9.52 132 0 132 C0 88.44 0 44.88 0 0 Z " fill="#020202" transform="translate(1240,964)"/>
<path d="M0 0 C0.82638977 -0.00807175 1.65277954 -0.01614349 2.50421143 -0.02445984 C4.25604148 -0.03830246 6.00789852 -0.04902382 7.75976562 -0.05688477 C10.42891196 -0.07406292 13.09680831 -0.11794164 15.765625 -0.16210938 C17.4687409 -0.17223957 19.17186733 -0.18075465 20.875 -0.1875 C21.66896179 -0.20500809 22.46292358 -0.22251617 23.28094482 -0.24055481 C28.55556377 -0.2200857 31.53734367 0.72422321 35.703125 4.23828125 C39.0594323 7.72229158 39.06482525 10.39725963 39.0246582 15.14624023 C39.021704 16.19289321 39.021704 16.19289321 39.01869011 17.26069069 C39.00786675 19.60644669 38.97482538 21.9513396 38.94140625 24.296875 C38.92793037 25.98293769 38.91553334 27.6690093 38.90412903 29.35508728 C38.86746236 33.99549519 38.80886518 38.63538379 38.74396515 43.27547455 C38.70261174 46.27551678 38.66548756 49.27558671 38.6293335 52.2756958 C38.47190636 65.0849441 38.25919595 77.8926006 38.01342773 90.70043945 C37.90700674 96.28800879 37.81784332 101.87573164 37.73182201 107.46364689 C37.66159782 111.81920743 37.57863049 116.17445751 37.49212074 120.52972221 C37.45338738 122.59369836 37.41950967 124.65777186 37.39070702 126.72191048 C37.34981828 129.57425286 37.29081194 132.42567227 37.22729492 135.27758789 C37.21937927 136.11628418 37.21146362 136.95498047 37.20330811 137.8190918 C37.05176 143.43584136 35.94899285 146.79786051 32.06005859 151.02368164 C28.48852172 152.86420328 24.91965334 152.68604594 20.9921875 152.671875 C20.14643158 152.67711685 19.30067566 152.6823587 18.42929077 152.6877594 C16.64232479 152.69417444 14.85531655 152.69284928 13.06835938 152.68432617 C10.34427989 152.67583163 7.62230907 152.70455783 4.8984375 152.73632812 C3.15885479 152.73794076 1.41926839 152.73736141 -0.3203125 152.734375 C-1.12987396 152.74560898 -1.93943542 152.75684296 -2.77352905 152.76841736 C-8.06835123 152.70369553 -11.10753862 151.76183945 -15.296875 148.23828125 C-17.45316788 145.00384192 -17.54880916 144.14109405 -17.55566406 140.41235352 C-17.56186264 139.41381851 -17.56806122 138.41528351 -17.57444763 137.38648987 C-17.57050491 136.28699509 -17.56656219 135.18750031 -17.5625 134.0546875 C-17.56536514 132.88804062 -17.56823029 131.72139374 -17.57118225 130.51939392 C-17.5748595 127.29049644 -17.5684124 124.06184458 -17.55502701 120.83297729 C-17.54688015 118.80206395 -17.54139583 116.77115787 -17.53646851 114.74023438 C-17.47432759 92.10724964 -17.19023596 69.47384299 -16.7130127 46.84591675 C-16.64169533 43.44393343 -16.58115203 40.04201881 -16.52966309 36.63967896 C-16.46751671 32.60326433 -16.38098763 28.56808166 -16.275877 24.53256416 C-16.24081816 23.04180526 -16.21393729 21.55082815 -16.19584846 20.05976677 C-16.03102223 7.30019464 -16.03102223 7.30019464 -12.86401367 3.36132812 C-8.62551472 -0.1439488 -5.31513855 0.04895224 0 0 Z " fill="#010101" transform="translate(426.296875,938.76171875)"/>
<path d="M0 0 C8.91 0 17.82 0 27 0 C28.29550781 3.52300781 29.59101562 7.04601562 30.92578125 10.67578125 C32.72077319 15.55490139 34.51645097 20.4337689 36.3125 25.3125 C36.54565792 25.94584637 36.77881584 26.57919273 37.01903915 27.23173141 C46.94105627 54.18126608 56.95019265 81.09784148 67 108 C70.31309541 100.24820693 73.3534279 92.45542614 76.1171875 84.4921875 C76.49168533 83.42297058 76.86618317 82.35375366 77.25202942 81.25213623 C78.05057656 78.97129027 78.84758604 76.68990545 79.64315796 74.40802002 C81.73804346 68.39972336 83.84427207 62.39540261 85.94921875 56.390625 C86.3722377 55.18294464 86.79525665 53.97526428 87.23109436 52.73098755 C91.33860006 41.01300583 95.50327357 29.31577257 99.6875 17.625 C100.01304871 16.71506287 100.33859741 15.80512573 100.67401123 14.86761475 C102.44752214 9.91108808 104.22338016 4.95541497 106 0 C114.91 0 123.82 0 133 0 C131.87499024 10.12508787 131.87499024 10.12508787 130.46313477 13.88378906 C129.98708549 15.17414566 129.98708549 15.17414566 129.50141907 16.49057007 C129.15161484 17.4063382 128.80181061 18.32210632 128.44140625 19.265625 C128.06908371 20.26526276 127.69676117 21.26490051 127.31315613 22.29483032 C126.07283447 25.61702036 124.81776891 28.93343186 123.5625 32.25 C122.68501573 34.59098767 121.80840835 36.93230418 120.93261719 39.27392578 C118.76591093 45.05888847 116.58899965 50.83992369 114.4073391 56.61926079 C112.43625369 61.84144132 110.46974685 67.06533113 108.50537109 72.29003906 C108.208651 73.07920212 107.9119309 73.86836517 107.60621929 74.68144226 C107.00218636 76.28794786 106.39815544 77.89445421 105.79412651 79.5009613 C99.21146592 97.00646086 92.6087796 114.50434367 86 132 C73.46 132 60.92 132 48 132 C40.89311536 114.53437207 34.28473655 96.8961711 27.69226074 79.23205566 C25.38255491 73.04389001 23.06993858 66.85681448 20.7555809 60.67038727 C19.89793229 58.37628485 19.04195809 56.08156231 18.18606567 53.7868042 C15.25727004 45.94620532 12.28353188 38.12582885 9.23974609 30.32910156 C8.62909189 28.75835544 8.01855034 27.18756552 7.40812683 25.61672974 C6.25634367 22.65347472 5.0917241 19.69571896 3.91963196 16.740448 C3.39864162 15.4028427 2.87812274 14.06505365 2.3581543 12.72705078 C1.90143845 11.56875763 1.4447226 10.41046448 0.97416687 9.21707153 C0 6 0 6 0 0 Z " fill="#020202" transform="translate(943,964)"/>

</svg>
